<svg width="376" height="159" viewBox="0 0 376 159" fill="none" xmlns="http://www.w3.org/2000/svg">
<g clip-path="url(#clip0_11_29)">
<path d="M128.8 32.2999L78.8498 2.64991C75.9363 0.912268 72.6071 -0.00512695 69.2148 -0.00512695C65.8225 -0.00512695 62.4933 0.912268 59.5798 2.64991L9.62978 32.2999C6.67629 34.0817 4.23607 36.5998 2.548 39.6078C0.859936 42.6158 -0.0181233 46.0106 -0.000219881 49.4599V108.76C-0.0163889 112.207 0.862495 115.6 2.55048 118.606C4.23846 121.612 6.67775 124.129 9.62978 125.91L59.5698 155.55C62.4836 157.287 65.8127 158.203 69.2048 158.203C72.5969 158.203 75.9259 157.287 78.8398 155.55L128.78 125.91C131.735 124.129 134.177 121.612 135.867 118.604C137.557 115.596 138.437 112.2 138.42 108.75V49.4599C138.438 46.0106 137.56 42.6158 135.872 39.6078C134.184 36.5998 131.743 34.0817 128.79 32.2999H128.8Z" fill="#2F3A3E"/>
<path d="M128.8 32.2999L78.8498 2.64991C75.9363 0.912268 72.6071 -0.00512695 69.2148 -0.00512695C65.8225 -0.00512695 62.4933 0.912268 59.5798 2.64991L9.62978 32.2999C6.67629 34.0817 4.23607 36.5998 2.548 39.6078C0.859936 42.6158 -0.0181233 46.0106 -0.000219881 49.4599V108.76C-0.0163889 112.207 0.862495 115.6 2.55048 118.606C4.23846 121.612 6.67775 124.129 9.62978 125.91L59.5698 155.55C62.4836 157.287 65.8127 158.203 69.2048 158.203C72.5969 158.203 75.9259 157.287 78.8398 155.55L128.78 125.91C131.735 124.129 134.177 121.612 135.867 118.604C137.557 115.596 138.437 112.2 138.42 108.75V49.4599C138.438 46.0106 137.56 42.6158 135.872 39.6078C134.184 36.5998 131.743 34.0817 128.79 32.2999H128.8ZM61.3198 152.5L11.3798 122.86C8.95355 121.39 6.94905 119.317 5.56122 116.842C4.17338 114.368 3.44944 111.577 3.45978 108.74V49.4399C3.44846 46.6028 4.17199 43.8111 5.55992 41.3367C6.94785 38.8623 8.95288 36.7894 11.3798 35.3199L61.3198 5.69991C63.7055 4.27663 66.4318 3.52518 69.2098 3.52518C71.9878 3.52518 74.7141 4.27663 77.0998 5.69991L127 35.3399C129.032 36.5708 130.771 38.2304 132.096 40.2028C133.421 42.1753 134.299 44.413 134.67 46.7599C133.01 43.2299 129.27 42.2599 124.93 44.7599L77.7198 73.9999C71.8198 77.4299 67.4898 81.2999 67.4798 88.3999V146.62C67.4798 150.87 69.1798 153.62 71.8298 154.42C70.9652 154.578 70.0887 154.662 69.2098 154.67C66.4327 154.668 63.7073 153.918 61.3198 152.5V152.5Z" fill="#F1F5F9"/>
<path d="M115.7 114.48L103.26 121.92C103.097 121.986 102.956 122.097 102.855 122.241C102.754 122.384 102.697 122.554 102.69 122.73V126C102.69 126.4 102.96 126.56 103.29 126.37L115.92 118.69C116.071 118.576 116.188 118.422 116.255 118.245C116.322 118.068 116.338 117.876 116.3 117.69V114.82C116.29 114.45 116 114.29 115.7 114.48V114.48Z" fill="#3AB14A"/>
<path d="M89.2202 87.0999C89.6202 86.8999 89.9502 87.0999 89.9602 87.6699L90.0002 91.9999C91.4962 91.3203 93.1651 91.1178 94.7802 91.4199C95.0802 91.4999 95.2202 91.9199 95.1002 92.4199L94.1502 96.2199C94.0782 96.5074 93.9296 96.7701 93.7202 96.9799C93.6467 97.0524 93.5623 97.1132 93.4702 97.1599C93.3572 97.221 93.2268 97.2422 93.1002 97.2199C91.5253 96.8711 89.8768 97.1358 88.4902 97.9599C87.4967 98.4074 86.6496 99.1263 86.0464 100.034C85.4431 100.941 85.1083 102.001 85.0802 103.09C85.0802 105.09 86.0802 105.64 89.5802 105.69C94.1802 105.77 96.1802 107.79 96.2402 112.43C96.186 114.828 95.6105 117.186 94.5536 119.339C93.4968 121.492 91.984 123.39 90.1202 124.9L90.2002 129.16C90.1967 129.42 90.1281 129.676 90.0006 129.903C89.873 130.13 89.6907 130.321 89.4702 130.46L86.9502 131.91C86.5502 132.11 86.2202 131.91 86.2102 131.35V127.15C84.0502 128.05 81.8602 128.25 80.4602 127.7C80.2002 127.6 80.0802 127.2 80.1902 126.76L81.0902 122.91C81.1594 122.605 81.3157 122.327 81.5402 122.11C81.6114 122.042 81.6923 121.984 81.7802 121.94C81.8447 121.911 81.9145 121.896 81.9852 121.896C82.0559 121.896 82.1257 121.911 82.1902 121.94C83.9729 122.423 85.8743 122.182 87.4802 121.27C88.6172 120.722 89.5825 119.873 90.2717 118.815C90.9609 117.757 91.3477 116.531 91.3902 115.27C91.3902 113.11 90.1902 112.21 87.3902 112.19C83.7602 112.19 80.3902 111.49 80.3202 106.19C80.3614 103.903 80.9083 101.654 81.9214 99.6033C82.9345 97.5528 84.3889 95.752 86.1802 94.3299L86.0002 89.9999C85.9994 89.7359 86.066 89.4761 86.1938 89.2451C86.3215 89.0141 86.5062 88.8195 86.7302 88.6799L89.2202 87.0999Z" fill="#2F3A3E"/>
<path d="M203 81.4C201.734 79.876 200.227 78.5688 198.54 77.53L197.9 77.15C199.247 76.2535 200.465 75.1769 201.52 73.95C203.856 71.2297 205.147 67.7659 205.16 64.18C205.267 61.0905 204.538 58.0294 203.05 55.32C201.644 52.878 199.689 50.7965 197.34 49.24C194.932 47.6593 192.27 46.5058 189.47 45.83C186.6 45.1201 183.656 44.7476 180.7 44.72H160.7C160.046 44.7039 159.413 44.9474 158.939 45.3973C158.465 45.8471 158.188 46.4666 158.17 47.12V111.04C158.188 111.693 158.465 112.313 158.939 112.763C159.413 113.213 160.046 113.456 160.7 113.44H182.24C185.317 113.411 188.375 112.943 191.32 112.05C194.167 111.207 196.847 109.878 199.24 108.12C201.573 106.387 203.495 104.161 204.87 101.6C206.319 98.8263 207.035 95.7282 206.95 92.6C206.977 90.5238 206.638 88.4589 205.95 86.5C205.265 84.644 204.267 82.9191 203 81.4V81.4ZM190.75 67.34C190.188 68.3024 189.428 69.1342 188.52 69.78C187.508 70.4973 186.382 71.0382 185.19 71.38C183.891 71.7664 182.545 71.975 181.19 72H171.81V56.47H180.91C182.359 56.4937 183.8 56.6748 185.21 57.01C186.411 57.2821 187.555 57.7627 188.59 58.43C189.47 59.0066 190.2 59.7848 190.72 60.7C191.272 61.7494 191.541 62.9248 191.5 64.11C191.545 65.2357 191.282 66.3524 190.74 67.34H190.75ZM171.85 83.56H182.85C184.318 83.595 185.774 83.8443 187.17 84.3C188.367 84.6883 189.48 85.299 190.45 86.1C191.347 86.8501 192.068 87.7891 192.56 88.85C193.095 90.0604 193.345 91.3777 193.29 92.7C193.316 93.9919 193.031 95.271 192.46 96.43C191.915 97.5055 191.14 98.4478 190.19 99.19C189.14 99.9998 187.96 100.625 186.7 101.04C185.335 101.496 183.909 101.739 182.47 101.76H171.85V83.56ZM244.53 46.4C244.354 45.9042 244.027 45.4762 243.594 45.1765C243.162 44.8769 242.646 44.7207 242.12 44.73H235C234.477 44.7235 233.965 44.8798 233.535 45.1773C233.105 45.4747 232.778 45.8985 232.6 46.39L210.9 110.31C210.777 110.67 210.746 111.055 210.809 111.43C210.872 111.806 211.027 112.159 211.26 112.46C211.496 112.767 211.799 113.016 212.145 113.189C212.492 113.362 212.873 113.455 213.26 113.46H221.8C222.328 113.466 222.845 113.307 223.277 113.003C223.71 112.7 224.036 112.269 224.21 111.77L229.06 96.91H247.76L252.52 111.76C252.691 112.263 253.018 112.699 253.453 113.004C253.888 113.31 254.409 113.469 254.94 113.46H263.44C263.827 113.455 264.208 113.362 264.554 113.189C264.901 113.016 265.203 112.767 265.44 112.46C265.674 112.16 265.83 111.807 265.895 111.431C265.959 111.056 265.93 110.671 265.81 110.31L244.53 46.4ZM244 85H233L238.56 67.86L244 85ZM317.2 83.87C316.043 82.3885 314.699 81.064 313.2 79.93C311.706 78.8005 310.12 77.7971 308.46 76.93C306.779 76.0541 305.046 75.2826 303.27 74.62L298.07 72.87L293.37 71.37C291.883 70.8555 290.455 70.1851 289.11 69.37C287.977 68.7047 286.986 67.825 286.19 66.78C285.512 65.8227 285.162 64.6725 285.19 63.5C285.156 62.3335 285.428 61.1783 285.98 60.15C286.524 59.1729 287.279 58.3292 288.19 57.68C289.205 56.9606 290.339 56.4258 291.54 56.1C294.363 55.2942 297.363 55.3569 300.15 56.28C301.38 56.7226 302.511 57.4021 303.48 58.28C304.432 59.1707 305.203 60.2369 305.75 61.42C306.379 62.7989 306.794 64.2658 306.98 65.77C307.074 66.3642 307.38 66.9042 307.841 67.2903C308.303 67.6763 308.888 67.8822 309.49 67.87H318.26C318.931 67.8721 319.576 67.614 320.06 67.15C320.293 66.9268 320.477 66.6579 320.601 66.3602C320.725 66.0625 320.786 65.7424 320.78 65.42C320.749 62.2835 319.974 59.199 318.52 56.42C317.12 53.7861 315.193 51.4681 312.86 49.61C310.463 47.7212 307.756 46.2629 304.86 45.3C299.046 43.3658 292.776 43.2785 286.91 45.05C284.115 45.8597 281.477 47.1378 279.11 48.83C276.806 50.4878 274.872 52.6059 273.43 55.05C271.924 57.645 271.15 60.5999 271.19 63.6C271.13 66.5623 271.918 69.48 273.46 72.01C274.915 74.3361 276.794 76.368 279 78C281.237 79.646 283.665 81.0159 286.23 82.08L293.7 84.8C295.3 85.2867 296.967 85.8333 298.7 86.44C300.222 86.9637 301.681 87.6546 303.05 88.5C304.215 89.2037 305.22 90.1439 306 91.26C306.704 92.336 307.054 93.6053 307 94.89C307.043 96.051 306.751 97.2 306.16 98.2C305.554 99.1687 304.746 99.9944 303.79 100.62C302.715 101.315 301.527 101.819 300.28 102.11C297.214 102.86 294.005 102.798 290.97 101.93C289.573 101.509 288.267 100.831 287.12 99.93C286.015 99.0556 285.094 97.9715 284.41 96.74C283.659 95.3521 283.174 93.8361 282.98 92.27C282.884 91.6776 282.577 91.14 282.115 90.756C281.654 90.3719 281.07 90.1674 280.47 90.18H271.74C271.064 90.178 270.415 90.44 269.93 90.91C269.698 91.1352 269.515 91.4061 269.393 91.7056C269.27 92.0051 269.212 92.3267 269.22 92.65C269.275 95.9077 270.167 99.0965 271.81 101.91C273.387 104.567 275.49 106.874 277.99 108.69C280.553 110.545 283.41 111.958 286.44 112.87C289.534 113.819 292.753 114.301 295.99 114.3C298.935 114.296 301.866 113.906 304.71 113.14C307.554 112.405 310.257 111.205 312.71 109.59C315.089 108.009 317.103 105.94 318.62 103.52C320.222 100.891 321.041 97.8585 320.98 94.78C320.999 92.737 320.661 90.7063 319.98 88.78C319.313 87.0074 318.371 85.3506 317.19 83.87H317.2ZM373.2 44.73H365.12C364.466 44.7139 363.833 44.9574 363.359 45.4073C362.885 45.8571 362.608 46.4766 362.59 47.13V72.2H340.09V47.13C340.072 46.4766 339.795 45.8571 339.321 45.4073C338.847 44.9574 338.213 44.7139 337.56 44.73H329.56C328.906 44.7139 328.273 44.9574 327.799 45.4073C327.325 45.8571 327.048 46.4766 327.03 47.13V111.05C327.048 111.703 327.325 112.323 327.799 112.773C328.273 113.223 328.906 113.466 329.56 113.45H337.56C338.213 113.466 338.847 113.223 339.321 112.773C339.795 112.323 340.072 111.703 340.09 111.05V83.9H362.59V111.04C362.608 111.693 362.885 112.313 363.359 112.763C363.833 113.213 364.466 113.456 365.12 113.44H373.2C373.853 113.456 374.487 113.213 374.961 112.763C375.435 112.313 375.712 111.693 375.73 111.04V47.14C375.712 46.4866 375.435 45.8671 374.961 45.4173C374.487 44.9674 373.853 44.7239 373.2 44.74V44.73ZM165.93 124.53H162.87V132.71H161.24V124.53H158.24V123.23H165.97L165.93 124.53ZM175.33 132.7H173.73V128.47H170.33V132.7H168.73V123.23H170.33V127.23H173.73V123.23H175.33V132.7ZM184.73 128.47H180.63V131.47H185.43V132.74H179V123.27H185.4V124.57H180.65V127.24H184.75L184.73 128.47ZM198.93 132.7V123.23H202.11C202.561 123.233 203.011 123.286 203.45 123.39C203.838 123.477 204.207 123.633 204.54 123.85C204.849 124.052 205.103 124.326 205.28 124.65C205.465 125.004 205.555 125.401 205.54 125.8C205.547 126.236 205.402 126.66 205.13 127C204.84 127.347 204.464 127.613 204.04 127.77C204.301 127.838 204.551 127.946 204.78 128.09C204.987 128.22 205.17 128.386 205.32 128.58C205.467 128.77 205.582 128.983 205.66 129.21C205.739 129.449 205.78 129.698 205.78 129.95C205.789 130.362 205.7 130.77 205.52 131.14C205.35 131.479 205.104 131.773 204.8 132C204.471 132.238 204.102 132.415 203.71 132.52C203.267 132.644 202.81 132.708 202.35 132.71L198.93 132.7ZM200.58 127.22H202.15C202.383 127.22 202.615 127.19 202.84 127.13C203.038 127.078 203.224 126.99 203.39 126.87C203.543 126.759 203.669 126.616 203.76 126.45C203.853 126.275 203.902 126.079 203.9 125.88C203.905 125.669 203.861 125.46 203.77 125.27C203.684 125.101 203.557 124.957 203.4 124.85C203.23 124.736 203.04 124.655 202.84 124.61C202.61 124.559 202.375 124.532 202.14 124.53H200.58V127.22ZM200.58 128.42V131.42H202.38C202.621 131.419 202.86 131.382 203.09 131.31C203.29 131.244 203.476 131.142 203.64 131.01C203.796 130.886 203.922 130.729 204.01 130.55C204.1 130.359 204.144 130.151 204.14 129.94C204.143 129.721 204.102 129.503 204.02 129.3C203.948 129.117 203.835 128.953 203.69 128.82C203.535 128.686 203.355 128.583 203.16 128.52C202.934 128.448 202.698 128.41 202.46 128.41L200.58 128.42ZM215.7 128.6C215.701 129.145 215.623 129.687 215.47 130.21C215.332 130.701 215.105 131.162 214.8 131.57C214.502 131.963 214.119 132.284 213.68 132.51C213.189 132.753 212.647 132.873 212.1 132.86C211.585 132.876 211.075 132.766 210.611 132.542C210.148 132.317 209.746 131.984 209.44 131.57C209.139 131.161 208.915 130.7 208.78 130.21C208.63 129.687 208.556 129.144 208.56 128.6V127.4C208.56 127.034 208.593 126.669 208.66 126.31C208.722 125.967 208.819 125.632 208.95 125.31C209.079 125.002 209.243 124.71 209.44 124.44C209.629 124.176 209.858 123.943 210.12 123.75C210.391 123.554 210.691 123.402 211.01 123.3C211.363 123.19 211.73 123.136 212.1 123.14C212.62 123.125 213.137 123.234 213.606 123.458C214.076 123.682 214.485 124.016 214.8 124.43C215.109 124.837 215.34 125.298 215.48 125.79C215.633 126.313 215.71 126.855 215.71 127.4L215.7 128.6ZM214.05 127.38C214.046 127.024 214.013 126.67 213.95 126.32C213.894 125.992 213.786 125.674 213.63 125.38C213.485 125.113 213.28 124.883 213.03 124.71C212.754 124.53 212.429 124.439 212.1 124.45C211.774 124.439 211.452 124.53 211.18 124.71C210.935 124.883 210.736 125.113 210.6 125.38C210.45 125.675 210.349 125.993 210.3 126.32C210.243 126.671 210.213 127.025 210.21 127.38V128.6C210.216 128.955 210.249 129.31 210.31 129.66C210.361 129.987 210.462 130.304 210.61 130.6C210.745 130.87 210.944 131.104 211.19 131.28C211.462 131.461 211.784 131.552 212.11 131.54C212.439 131.551 212.764 131.46 213.04 131.28C213.289 131.102 213.495 130.87 213.64 130.6C213.797 130.306 213.905 129.989 213.96 129.66C214.022 129.31 214.055 128.955 214.06 128.6L214.05 127.38ZM225.45 123.25V129.59C225.45 130.045 225.366 130.496 225.2 130.92C225.046 131.295 224.819 131.635 224.53 131.92C224.245 132.206 223.905 132.431 223.53 132.58C223.091 132.74 222.627 132.818 222.16 132.81C221.703 132.817 221.248 132.739 220.82 132.58C220.433 132.435 220.081 132.21 219.788 131.918C219.495 131.627 219.267 131.276 219.12 130.89C218.953 130.463 218.869 130.008 218.87 129.55V123.21H220.47V129.55C220.473 129.821 220.513 130.09 220.59 130.35C220.653 130.578 220.758 130.791 220.9 130.98C221.036 131.155 221.21 131.295 221.41 131.39C221.632 131.493 221.875 131.544 222.12 131.54C222.371 131.544 222.621 131.493 222.85 131.39C223.056 131.297 223.238 131.156 223.38 130.98C223.527 130.793 223.635 130.579 223.7 130.35C223.776 130.09 223.816 129.821 223.82 129.55V123.21L225.45 123.25ZM232.32 129H230.65V132.7H229V123.23H232.15C232.626 123.231 233.1 123.295 233.56 123.42C233.963 123.524 234.344 123.704 234.68 123.95C234.992 124.183 235.242 124.489 235.41 124.84C235.591 125.231 235.68 125.659 235.67 126.09C235.674 126.385 235.63 126.679 235.54 126.96C235.455 127.215 235.33 127.455 235.17 127.67C235.009 127.884 234.817 128.073 234.6 128.23C234.37 128.395 234.122 128.532 233.86 128.64L235.96 132.64V132.72H234.21L232.32 129ZM230.65 127.74H232.15C232.404 127.742 232.657 127.705 232.9 127.63C233.115 127.561 233.315 127.453 233.49 127.31C233.656 127.175 233.79 127.004 233.88 126.81C233.975 126.596 234.023 126.364 234.02 126.13C234.024 125.89 233.98 125.652 233.89 125.43C233.808 125.234 233.681 125.059 233.52 124.92C233.347 124.774 233.147 124.665 232.93 124.6C232.676 124.527 232.414 124.49 232.15 124.49H230.65V127.74ZM245.43 132.7H243.78L240.54 126.2V132.7H238.88V123.23H240.54L243.77 129.73V123.23H245.43V132.7ZM254.83 128.47H250.73V131.47H255.53V132.74H249.1V123.27H255.5V124.57H250.75V127.24H254.85L254.83 128.47ZM265.17 129.2H259.69V127.95H265.17V129.2ZM273.85 130.52H270.75L270.07 132.72H268.37L271.6 123.25H273L276.17 132.72H274.47L273.85 130.52ZM271.15 129.19H273.43L272.3 125.49L271.15 129.19ZM285.72 131.53C285.544 131.729 285.346 131.907 285.13 132.06C284.89 132.228 284.631 132.369 284.36 132.48C284.063 132.6 283.755 132.691 283.44 132.75C283.091 132.818 282.736 132.851 282.38 132.85C281.832 132.862 281.288 132.749 280.79 132.52C280.337 132.307 279.938 131.996 279.62 131.61C279.292 131.208 279.044 130.746 278.89 130.25C278.718 129.706 278.631 129.14 278.63 128.57V127.4C278.626 126.83 278.711 126.264 278.88 125.72C279.03 125.226 279.271 124.765 279.59 124.36C279.895 123.977 280.281 123.666 280.72 123.45C281.196 123.218 281.72 123.102 282.25 123.11C282.718 123.103 283.183 123.171 283.63 123.31C283.998 123.437 284.337 123.634 284.63 123.89C284.923 124.148 285.158 124.465 285.32 124.82C285.495 125.206 285.603 125.618 285.64 126.04H284.04C284.005 125.803 283.941 125.571 283.85 125.35C283.769 125.155 283.65 124.978 283.5 124.83C283.349 124.683 283.168 124.571 282.97 124.5C282.732 124.42 282.481 124.383 282.23 124.39C281.916 124.38 281.606 124.464 281.34 124.63C281.086 124.8 280.873 125.025 280.72 125.29C280.544 125.601 280.423 125.939 280.36 126.29C280.282 126.665 280.241 127.047 280.24 127.43V128.61C280.244 128.99 280.288 129.369 280.37 129.74C280.436 130.093 280.564 130.432 280.75 130.74C280.915 131.009 281.141 131.235 281.41 131.4C281.713 131.575 282.06 131.661 282.41 131.65H282.89C283.049 131.633 283.206 131.602 283.36 131.56C283.502 131.518 283.64 131.461 283.77 131.39C283.885 131.327 283.987 131.242 284.07 131.14V129.24H282.27V128.04H285.67L285.72 131.53ZM293.9 130.53H290.8L290.12 132.73H288.42L291.65 123.26H293.09L296.26 132.73H294.56L293.9 130.53ZM291.2 129.2H293.48L292.35 125.5L291.2 129.2ZM299.3 123.26H305.22V124.56H303.07V131.46H305.22V132.76H299.3V131.46H301.4V124.56H299.3V123.26ZM315.54 132.71H313.89L310.65 126.21V132.71H309V123.24H310.66L313.89 129.74V123.24H315.55L315.54 132.71ZM334.3 130.29C334.303 130.084 334.251 129.88 334.15 129.7C334.043 129.522 333.9 129.368 333.73 129.25C333.532 129.11 333.317 128.996 333.09 128.91C332.843 128.81 332.577 128.72 332.29 128.64C331.895 128.532 331.508 128.398 331.13 128.24C330.773 128.087 330.437 127.889 330.13 127.65C329.838 127.428 329.59 127.154 329.4 126.84C329.209 126.513 329.112 126.139 329.12 125.76C329.114 125.375 329.211 124.995 329.4 124.66C329.585 124.337 329.838 124.057 330.14 123.84C330.468 123.606 330.833 123.43 331.22 123.32C331.639 123.198 332.074 123.138 332.51 123.14C332.965 123.137 333.418 123.208 333.85 123.35C334.245 123.48 334.614 123.68 334.94 123.94C335.247 124.189 335.499 124.498 335.68 124.85C335.864 125.213 335.96 125.613 335.96 126.02H334.32C334.301 125.796 334.247 125.577 334.16 125.37C334.077 125.176 333.955 125.003 333.8 124.86C333.638 124.712 333.448 124.6 333.24 124.53C332.995 124.447 332.738 124.406 332.48 124.41C332.25 124.408 332.021 124.439 331.8 124.5C331.605 124.555 331.421 124.647 331.26 124.77C331.111 124.882 330.988 125.025 330.9 125.19C330.811 125.363 330.767 125.556 330.77 125.75C330.77 125.954 330.833 126.153 330.95 126.32C331.074 126.492 331.23 126.638 331.41 126.75C331.617 126.881 331.838 126.989 332.07 127.07C332.317 127.157 332.577 127.237 332.85 127.31C333.257 127.424 333.654 127.567 334.04 127.74C334.4 127.9 334.737 128.109 335.04 128.36C335.318 128.59 335.549 128.872 335.72 129.19C335.893 129.527 335.979 129.902 335.97 130.28C335.978 130.668 335.881 131.052 335.69 131.39C335.503 131.713 335.247 131.989 334.94 132.2C334.607 132.424 334.239 132.59 333.85 132.69C333.426 132.803 332.989 132.861 332.55 132.86C332.245 132.862 331.94 132.835 331.64 132.78C331.345 132.727 331.057 132.643 330.78 132.53C330.508 132.42 330.25 132.279 330.01 132.11C329.777 131.947 329.569 131.751 329.39 131.53C329.02 131.067 328.819 130.492 328.82 129.9H330.47C330.487 130.161 330.555 130.415 330.67 130.65C330.775 130.857 330.925 131.039 331.11 131.18C331.301 131.326 331.518 131.435 331.75 131.5C332.013 131.575 332.286 131.612 332.56 131.61C332.792 131.612 333.024 131.586 333.25 131.53C333.45 131.48 333.639 131.395 333.81 131.28C333.966 131.174 334.096 131.034 334.19 130.87C334.282 130.691 334.323 130.491 334.31 130.29H334.3ZM345.6 132.71H344V128.48H340.6V132.71H339V123.24H340.6V127.24H344V123.24H345.6V132.71ZM355 128.48H350.9V131.48H355.7V132.75H349.26V123.28H355.66V124.58H350.91V127.25H355.01L355 128.48ZM361 131.45H365.75V132.72H359.35V123.25H361V131.45ZM371 131.45H375.75V132.72H369.35V123.25H371V131.45Z" fill="#F1F5F9"/>
</g>
<defs>
<clipPath id="clip0_11_29">
<rect width="375.72" height="158.2" fill="white"/>
</clipPath>
</defs>
</svg>
