<svg width="120" height="60" viewBox="0 0 120 60" fill="none" xmlns="http://www.w3.org/2000/svg">
<path d="M67.2672 22.2999C69.2272 24.0929 70.2072 26.5499 70.2072 29.7449C70.2072 32.9399 69.2522 35.4729 67.3412 37.3449C65.4302 39.2169 62.5162 40.1429 58.5962 40.1429H51.6982V19.6799H58.8312C62.4962 19.6799 65.3082 20.5049 67.2682 22.2979L67.2672 22.2999ZM63.9002 34.4499C65.0262 33.3919 65.6002 31.8499 65.6002 29.8299C65.6002 27.8099 65.0362 26.2279 63.9002 25.1299C62.7642 24.0319 61.0442 23.4699 58.7002 23.4699H56.0702V36.0299H59.0562C61.1522 36.0299 62.7642 35.4949 63.8912 34.4369L63.9002 34.4499ZM86.4702 40.1299H82.3702V38.1739C81.2002 39.6039 79.8402 40.3189 78.1652 40.3189C76.4902 40.3189 75.0892 39.8349 73.9532 38.8649C72.8172 37.8949 72.2512 36.6009 72.2512 34.9849C72.2512 33.3689 72.8512 32.1829 74.0162 31.3789C75.1812 30.5749 76.8002 30.1999 78.8402 30.1999H82.0802V30.0639C82.0802 28.3789 81.2152 27.5359 79.4322 27.5359C78.6672 27.5359 77.8722 27.6879 77.0192 27.9909C76.1662 28.2939 75.4532 28.6709 74.8652 29.1229L72.9002 26.2699C74.9772 24.7699 77.3502 24.0059 80.0162 24.0059C81.9362 24.0059 83.4642 24.4859 84.6812 25.4459C85.8982 26.4059 86.4632 27.9259 86.4632 30.0019L86.4702 40.1299ZM82.0882 34.0599V33.4119H79.3482C77.5852 33.4119 76.7032 33.9119 76.7032 34.9999C76.7032 35.5679 76.9032 35.9749 77.3332 36.2799C77.7632 36.5849 78.3572 36.7199 79.1332 36.7199C79.9092 36.7199 80.5952 36.4719 81.1932 35.9919C81.7912 35.5119 82.0772 34.8619 82.0772 34.0589L82.0882 34.0599ZM98.0962 28.1519C96.7832 28.1519 95.7432 28.6169 95.0962 29.5469C94.4492 30.4769 94.0662 31.7069 94.0662 33.2349V40.1299H89.6842V24.3549H94.0662V26.3579C94.6502 25.7119 95.4482 25.1629 96.2992 24.7119C97.1502 24.2609 98.1562 24.0259 99.0322 24.0059V28.1529H98.0962V28.1519ZM106.044 27.5679V34.5279C106.044 35.1359 106.224 35.6109 106.537 35.9529C106.677 36.1147 106.85 36.2445 107.045 36.3333C107.24 36.4222 107.451 36.4681 107.665 36.4679C108.489 36.4679 109.19 36.0959 109.757 35.3509L111.407 38.4369C110.035 39.6919 108.591 40.3169 107.073 40.3169C105.555 40.3169 104.275 39.8169 103.228 38.8169C102.181 37.8169 101.662 36.4569 101.662 34.7309V19.6799H106.045V24.0619H110.715L108.315 27.5679H106.055H106.044Z" fill="#F1F5F9"/>
<path d="M14.7999 20.956L12.2329 18.386L12.2429 36.941L12.2729 37.807C12.2849 38.207 12.3729 38.677 12.4869 39.153L32.8239 46.325L37.9069 44.073L37.9109 44.066L14.8109 20.954L14.7999 20.956Z" fill="#00C4B3"/>
<path d="M12.4801 39.1549H12.4821C12.4799 39.146 12.4769 39.1373 12.4731 39.1289C12.4771 39.1389 12.4771 39.1469 12.4801 39.1549ZM37.9001 44.0749L32.8171 46.3269L12.4821 39.1549C12.8701 40.6549 13.7321 42.3249 14.6551 43.2389L21.2901 49.8389L36.0501 49.8589L37.9001 44.0789V44.0749Z" fill="#22D3C5"/>
<path d="M12.293 18.3869L4.386 30.3299C3.73 31.0319 4.056 32.4779 5.114 33.5439L9.679 38.1459L12.549 39.1459C12.425 38.6699 12.347 38.2099 12.335 37.7999L12.303 36.9339L12.293 18.3789V18.3869Z" fill="#0075C9"/>
<path d="M32.9841 18.6258C32.5071 18.5058 32.0481 18.4288 31.6361 18.4258L30.7191 18.3918L12.2251 18.3958L37.9091 44.0758L40.1651 38.9878L32.9851 18.6338L32.9841 18.6258Z" fill="#0075C9"/>
<path d="M32.96 18.6221C32.968 18.6251 32.977 18.6271 32.984 18.6291V18.6271C32.976 18.6251 32.968 18.6251 32.96 18.6221V18.6221ZM37.065 20.8051C36.131 19.8651 34.478 19.0111 32.985 18.6281L40.165 38.9781L37.907 44.0661L43.407 42.3061L43.419 27.2061L37.055 20.8141L37.065 20.8051Z" fill="#00A8E1"/>
<path d="M31.9771 15.7751L27.3771 11.2081C26.3131 10.1551 24.8771 9.82608 24.1651 10.4811L12.2251 18.3871L30.7191 18.3831L31.6361 18.4171C32.0491 18.4291 32.5061 18.5051 32.9841 18.6171L31.9771 15.7671V15.7751Z" fill="#00C4B3"/>
</svg>
