<svg width="590" height="361" viewBox="0 0 590 361" fill="none" xmlns="http://www.w3.org/2000/svg">
<g clip-path="url(#clip0_201_2)">
<path d="M291.67 359.958C289.673 359.958 287.809 359.427 286.077 358.497L268.367 348.001C265.703 346.538 267.035 346.007 267.835 345.742C271.43 344.546 272.096 344.279 275.824 342.155C276.224 341.888 276.757 342.021 277.156 342.287L290.739 350.392C291.272 350.658 291.938 350.658 292.336 350.392L345.47 319.698C346.002 319.432 346.269 318.9 346.269 318.237V256.981C346.269 256.316 346.002 255.786 345.47 255.519L292.336 224.958C291.804 224.691 291.138 224.691 290.739 224.958L237.606 255.519C237.074 255.785 236.806 256.449 236.806 256.98V318.235C236.806 318.768 237.074 319.431 237.606 319.698L252.121 328.069C259.978 332.055 264.905 327.404 264.905 322.754V262.295C264.905 261.499 265.571 260.701 266.503 260.701H273.294C274.094 260.701 274.892 261.365 274.892 262.295V322.754C274.892 333.25 269.166 339.363 259.178 339.363C256.116 339.363 253.719 339.363 246.927 336.041L232.945 328.069C229.483 326.076 227.353 322.355 227.353 318.369V257.114C227.353 253.128 229.483 249.406 232.945 247.414L286.077 216.72C289.407 214.859 293.935 214.859 297.264 216.72L350.396 247.414C353.859 249.406 355.99 253.128 355.99 257.114V318.369C355.99 322.355 353.859 326.076 350.396 328.069L297.264 358.763C295.532 359.561 293.536 359.958 291.671 359.958H291.67ZM308.05 317.838C284.747 317.838 279.952 307.208 279.952 298.172C279.952 297.374 280.618 296.578 281.551 296.578H288.475C289.274 296.578 289.94 297.109 289.94 297.907C291.005 304.949 294.068 308.403 308.183 308.403C319.369 308.403 324.164 305.879 324.164 299.899C324.164 296.444 322.831 293.921 305.387 292.193C290.872 290.73 281.817 287.542 281.817 275.982C281.817 265.219 290.873 258.841 306.053 258.841C323.097 258.841 331.488 264.688 332.553 277.442C332.553 277.842 332.42 278.24 332.154 278.639C331.886 278.905 331.488 279.17 331.088 279.17H324.163C323.497 279.17 322.831 278.639 322.699 277.975C321.101 270.667 316.972 268.275 306.053 268.275C293.802 268.275 292.336 272.527 292.336 275.716C292.336 279.569 294.068 280.765 310.58 282.891C326.96 285.018 334.684 288.073 334.684 299.5C334.55 311.194 324.963 317.838 308.05 317.838Z" fill="#539E43"/>
<path d="M126.812 120.386C126.812 117.994 125.481 115.734 123.35 114.538L66.8881 82.1172C65.9549 81.5849 64.8902 81.3193 63.8256 81.186H63.2921C62.2275 81.186 61.1617 81.5849 60.2296 82.1172L3.76763 114.538C1.63608 115.734 0.305298 117.993 0.305298 120.386L0.438952 207.551C0.438952 208.747 1.10492 209.942 2.16954 210.475C3.23532 211.139 4.5661 211.139 5.49938 210.475L39.0569 191.34C41.1873 190.145 42.5193 187.886 42.5193 185.494V144.701C42.5193 142.31 43.8501 140.051 45.9816 138.855L60.2296 130.617C61.2954 129.952 62.4937 129.685 63.692 129.685C64.8902 129.685 66.0885 129.952 67.0218 130.617L81.2698 138.855C83.4013 140.051 84.7321 142.309 84.7321 144.701V185.494C84.7321 187.886 86.064 190.145 88.1945 191.34L121.752 210.475C122.818 211.139 124.149 211.139 125.214 210.475C126.28 209.942 126.946 208.747 126.946 207.551L126.812 120.386ZM398.203 0.398983C397.138 -0.13332 395.807 -0.13332 394.873 0.398983C393.809 1.0635 393.143 2.1258 393.143 3.32147V89.6913C393.143 90.488 392.744 91.2848 391.944 91.8171C391.146 92.2149 390.346 92.2149 389.548 91.8171L375.432 83.7118C374.397 83.1239 373.227 82.8147 372.036 82.8147C370.845 82.8147 369.675 83.1239 368.64 83.7118L312.178 116.266C310.048 117.462 308.716 119.721 308.716 122.112V187.088C308.716 189.479 310.048 191.739 312.178 192.935L368.64 225.489C369.675 226.077 370.845 226.387 372.036 226.387C373.227 226.387 374.397 226.077 375.432 225.489L431.894 192.935C434.025 191.739 435.357 189.48 435.357 187.088V25.1137C435.357 22.589 434.025 20.331 431.894 19.1342L398.203 0.398983ZM393.01 165.696C393.01 166.36 392.744 166.891 392.211 167.157L372.902 178.318C372.632 178.449 372.336 178.517 372.036 178.517C371.736 178.517 371.44 178.449 371.17 178.318L351.862 167.157C351.328 166.891 351.062 166.227 351.062 165.696V143.372C351.062 142.708 351.328 142.177 351.862 141.911L371.17 130.749C371.44 130.617 371.736 130.549 372.036 130.549C372.336 130.549 372.632 130.617 372.902 130.749L392.211 141.911C392.744 142.175 393.01 142.841 393.01 143.372V165.696ZM586.099 142.841C588.231 141.645 589.429 139.386 589.429 136.994V121.182C589.429 118.791 588.097 116.532 586.099 115.336L530.037 82.9151C529.002 82.3274 527.832 82.0183 526.641 82.0183C525.451 82.0183 524.281 82.3274 523.246 82.9151L466.784 115.468C464.652 116.664 463.321 118.923 463.321 121.316V186.291C463.321 188.682 464.652 190.941 466.784 192.137L522.846 224.027C524.978 225.223 527.507 225.223 529.504 224.027L563.461 205.161C564.527 204.628 565.192 203.433 565.192 202.237C565.192 201.041 564.527 199.846 563.461 199.313L506.733 166.759C505.668 166.096 505.002 165.032 505.002 163.837V143.507C505.002 142.311 505.668 141.115 506.733 140.583L524.444 130.484C524.962 130.159 525.563 129.986 526.175 129.986C526.788 129.986 527.388 130.159 527.906 130.484L545.617 140.583C546.682 141.248 547.348 142.31 547.348 143.507V159.452C547.348 160.647 548.014 161.843 549.079 162.374C550.145 163.039 551.476 163.039 552.541 162.374L586.099 142.841Z" fill="#F1F5F9"/>
<path d="M525.776 139.785C525.974 139.655 526.205 139.586 526.441 139.586C526.678 139.586 526.909 139.655 527.107 139.785L537.894 146.03C538.293 146.295 538.56 146.694 538.56 147.226V159.716C538.56 160.247 538.293 160.646 537.894 160.912L527.107 167.157C526.909 167.287 526.678 167.356 526.441 167.356C526.205 167.356 525.974 167.287 525.776 167.157L514.989 160.912C514.589 160.646 514.323 160.247 514.323 159.716V147.226C514.323 146.694 514.589 146.295 514.989 146.03L525.776 139.785V139.785Z" fill="#539E43"/>
<mask id="mask0_201_2" style="mask-type:alpha" maskUnits="userSpaceOnUse" x="155" y="82" width="126" height="144">
<path d="M221.226 83.1807C220.192 82.593 219.021 82.2839 217.831 82.2839C216.64 82.2839 215.47 82.593 214.435 83.1807L158.373 115.467C156.242 116.663 155.043 118.922 155.043 121.313V186.024C155.043 188.416 156.375 190.675 158.373 191.87L214.435 224.159C215.47 224.747 216.64 225.056 217.831 225.056C219.021 225.056 220.192 224.747 221.226 224.159L277.29 191.87C279.42 190.675 280.62 188.416 280.62 186.024V121.315C280.62 118.923 279.286 116.664 277.29 115.468L221.226 83.1807Z" fill="white"/>
</mask>
<g mask="url(#mask0_201_2)">
<path d="M221.226 83.1807C220.192 82.593 219.021 82.2839 217.831 82.2839C216.64 82.2839 215.47 82.593 214.435 83.1807L158.373 115.467C156.242 116.663 155.043 118.922 155.043 121.313V186.024C155.043 188.416 156.375 190.675 158.373 191.87L214.435 224.159C215.47 224.747 216.64 225.056 217.831 225.056C219.021 225.056 220.192 224.747 221.226 224.159L277.29 191.87C279.42 190.675 280.62 188.416 280.62 186.024V121.315C280.62 118.923 279.286 116.664 277.29 115.468L221.226 83.1807Z" fill="url(#paint0_linear_201_2)"/>
<path d="M277.422 115.468L221.094 83.1806C220.54 82.9017 219.96 82.6791 219.362 82.5161L156.242 190.411C156.765 191.048 157.396 191.588 158.107 192.006L214.435 224.295C216.033 225.225 217.898 225.491 219.628 224.958L278.888 116.798C278.488 116.267 277.954 115.867 277.422 115.469V115.468Z" fill="url(#paint1_linear_201_2)"/>
<path fill-rule="evenodd" clip-rule="evenodd" d="M277.556 191.872C279.154 190.942 280.352 189.347 280.886 187.62L219.095 82.3829C217.497 82.1173 215.765 82.2495 214.302 83.1796L158.372 115.336L218.695 225.09C219.572 224.947 220.424 224.679 221.225 224.294L277.555 191.873L277.556 191.872Z" fill="url(#paint2_linear_201_2)"/>
<path fill-rule="evenodd" clip-rule="evenodd" d="M277.556 191.872L221.36 224.161C220.567 224.564 219.712 224.833 218.83 224.957L219.896 226.951L282.216 190.943V190.145L280.618 187.487C280.352 189.347 279.154 190.942 277.556 191.872V191.872Z" fill="url(#paint3_linear_201_2)"/>
<path fill-rule="evenodd" clip-rule="evenodd" d="M277.556 191.872L221.36 224.161C220.567 224.564 219.712 224.833 218.83 224.957L219.896 226.951L282.216 190.943V190.145L280.618 187.487C280.352 189.347 279.154 190.942 277.556 191.872V191.872Z" fill="url(#paint4_linear_201_2)"/>
</g>
</g>
<defs>
<linearGradient id="paint0_linear_201_2" x1="240.671" y1="107.251" x2="179.412" y2="203.717" gradientUnits="userSpaceOnUse">
<stop stop-color="#41873F"/>
<stop offset="0.3288" stop-color="#418B3D"/>
<stop offset="0.6352" stop-color="#419637"/>
<stop offset="0.9319" stop-color="#3FA92D"/>
<stop offset="1" stop-color="#3FAE2A"/>
</linearGradient>
<linearGradient id="paint1_linear_201_2" x1="209.319" y1="161.25" x2="363.064" y2="77.5376" gradientUnits="userSpaceOnUse">
<stop offset="0.1376" stop-color="#41873F"/>
<stop offset="0.4032" stop-color="#54A044"/>
<stop offset="0.7136" stop-color="#66B848"/>
<stop offset="0.9081" stop-color="#6CC04A"/>
</linearGradient>
<linearGradient id="paint2_linear_201_2" x1="152.995" y1="153.672" x2="282.722" y2="153.672" gradientUnits="userSpaceOnUse">
<stop offset="0.09192" stop-color="#6CC04A"/>
<stop offset="0.2864" stop-color="#66B848"/>
<stop offset="0.5968" stop-color="#54A044"/>
<stop offset="0.8624" stop-color="#41873F"/>
</linearGradient>
<linearGradient id="paint3_linear_201_2" x1="152.996" y1="207.327" x2="282.721" y2="207.327" gradientUnits="userSpaceOnUse">
<stop offset="0.09192" stop-color="#6CC04A"/>
<stop offset="0.2864" stop-color="#66B848"/>
<stop offset="0.5968" stop-color="#54A044"/>
<stop offset="0.8624" stop-color="#41873F"/>
</linearGradient>
<linearGradient id="paint4_linear_201_2" x1="301.621" y1="104.191" x2="268.894" y2="276.051" gradientUnits="userSpaceOnUse">
<stop stop-color="#41873F"/>
<stop offset="0.3288" stop-color="#418B3D"/>
<stop offset="0.6352" stop-color="#419637"/>
<stop offset="0.9319" stop-color="#3FA92D"/>
<stop offset="1" stop-color="#3FAE2A"/>
</linearGradient>
<clipPath id="clip0_201_2">
<rect width="590" height="361" fill="white"/>
</clipPath>
</defs>
</svg>
